<svg width="69" height="29" viewBox="0 0 69 29" fill="none" xmlns="http://www.w3.org/2000/svg">
<path d="M0.82 21L4.744 1.308H12.412L11.296 6.888L10.54 5.304C11.356 3.744 12.484 2.628 13.924 1.956C15.388 1.284 17.056 0.947999 18.928 0.947999L17.488 8.148C17.152 8.1 16.84 8.064 16.552 8.04C16.288 8.016 16.012 8.004 15.724 8.004C14.38 8.004 13.288 8.304 12.448 8.904C11.632 9.504 11.08 10.5 10.792 11.892L8.956 21H0.82ZM26.0622 21.36C24.7662 21.36 23.4942 21.012 22.2462 20.316C20.9982 19.596 19.9662 18.564 19.1502 17.22C18.3582 15.852 17.9622 14.196 17.9622 12.252C17.9622 10.62 18.2382 9.12 18.7902 7.752C19.3422 6.384 20.0982 5.196 21.0582 4.188C22.0422 3.156 23.1582 2.364 24.4062 1.812C25.6782 1.236 27.0222 0.947999 28.4382 0.947999C29.9742 0.947999 31.3062 1.26 32.4342 1.884C33.5622 2.508 34.3662 3.564 34.8462 5.052C35.3502 6.516 35.3982 8.544 34.9902 11.136C34.6542 13.248 34.0782 15.072 33.2622 16.608C32.4702 18.144 31.4742 19.32 30.2742 20.136C29.0742 20.952 27.6702 21.36 26.0622 21.36ZM29.1222 14.952C29.8422 14.952 30.4662 14.772 30.9942 14.412C31.5222 14.028 31.9302 13.5 32.2182 12.828C32.5302 12.156 32.6862 11.364 32.6862 10.452C32.6862 9.54 32.4222 8.796 31.8942 8.22C31.3902 7.644 30.6822 7.356 29.7702 7.356C29.0742 7.356 28.4502 7.548 27.8982 7.932C27.3702 8.292 26.9502 8.808 26.6382 9.48C26.3502 10.152 26.2062 10.944 26.2062 11.856C26.2062 12.768 26.4582 13.512 26.9622 14.088C27.4902 14.664 28.2102 14.952 29.1222 14.952ZM31.0302 21L31.5702 18.336L32.9022 11.136L33.9462 4.008L34.4862 1.308H42.6222L38.6982 21H31.0302ZM45.5092 28.344C44.4292 28.344 43.3612 28.188 42.3052 27.876C41.2252 27.564 40.3612 27.156 39.7132 26.652L43.2412 21C43.6492 21.312 44.1052 21.564 44.6092 21.756C45.1132 21.948 45.6412 22.044 46.1932 22.044C46.8412 22.044 47.3692 21.888 47.7772 21.576C48.1852 21.288 48.5692 20.844 48.9292 20.244L50.1892 18.156L50.8012 17.364L60.1972 1.308H68.1532L56.0572 21.396C54.9772 23.196 53.9212 24.6 52.8892 25.608C51.8572 26.616 50.7412 27.324 49.5412 27.732C48.3652 28.14 47.0212 28.344 45.5092 28.344ZM48.3532 21.9L43.8892 1.308H51.9892L54.9052 16.644L48.3532 21.9Z" fill="white"/>
</svg>
