<svg width="36" height="40" viewBox="0 0 36 40" fill="none" xmlns="http://www.w3.org/2000/svg">
<g clip-path="url(#clip0_1234_406)">
<path d="M26.1721 14.4026C28.7484 16.2433 31.9046 17.3263 35.3132 17.3263V10.7705C34.6681 10.7707 34.0247 10.7034 33.3935 10.5696V15.73C29.9851 15.73 26.8294 14.6472 24.2526 12.8066V26.1854C24.2526 32.8782 18.8241 38.3033 12.1284 38.3033C9.63008 38.3033 7.30787 37.5484 5.37891 36.2536C7.58056 38.5037 10.6509 39.8994 14.0476 39.8994C20.7439 39.8994 26.1724 34.4743 26.1724 27.7812V14.4026H26.1721ZM28.5404 7.78853C27.2237 6.35088 26.3592 4.49294 26.1721 2.43888V1.5957H24.353C24.8109 4.20632 26.373 6.43667 28.5404 7.78853ZM9.61394 31.1179C8.87827 30.154 8.48062 28.9746 8.48249 27.762C8.48249 24.7011 10.9654 22.2192 14.0287 22.2192C14.5995 22.2188 15.1669 22.3064 15.711 22.4789V15.7764C15.0752 15.6894 14.4335 15.6523 13.7921 15.6659V20.8827C13.2478 20.7103 12.68 20.6227 12.109 20.6232C9.0458 20.6232 6.56304 23.1048 6.56304 26.1662C6.56304 28.3309 7.80401 30.2049 9.61394 31.1179Z" fill="#FF004F"/>
<path d="M24.2549 12.8065C26.8318 14.647 29.9873 15.7299 33.3958 15.7299V10.5695C31.4932 10.1644 29.809 9.17074 28.5426 7.78853C26.375 6.43653 24.8132 4.20619 24.3553 1.5957H19.577V27.7809C19.5661 30.8336 17.0874 33.3054 14.0307 33.3054C12.2296 33.3054 10.6294 32.4473 9.61599 31.1178C7.80633 30.2049 6.56523 28.3307 6.56523 26.1663C6.56523 23.1052 9.04799 20.6233 12.1112 20.6233C12.6981 20.6233 13.2637 20.7146 13.7943 20.8829V15.666C7.21613 15.8019 1.92578 21.174 1.92578 27.7811C1.92578 31.0793 3.24316 34.0692 5.38137 36.2539C7.31033 37.5484 9.6324 38.3036 12.1309 38.3036C18.8267 38.3036 24.255 32.878 24.255 26.1854L24.2549 12.8065Z" fill="black"/>
<path d="M33.3936 10.5697V9.17462C31.6778 9.17711 29.996 8.69689 28.5403 7.78883C29.8289 9.19878 31.5256 10.1711 33.3936 10.5699M24.3529 1.59586C24.3093 1.34642 24.2758 1.09532 24.2525 0.843172V0H17.6547V26.1855C17.6442 29.2379 15.1656 31.7097 12.1087 31.7097C11.2421 31.7109 10.3874 31.5084 9.61356 31.1183C10.6269 32.4476 12.2272 33.3055 14.0283 33.3055C17.0849 33.3055 19.5638 30.8341 19.5745 27.7814V1.596L24.3529 1.59586ZM13.7923 15.6662V14.1808C13.241 14.1056 12.6852 14.0679 12.1287 14.068C5.43218 14.068 0.00390625 19.4934 0.00390625 26.1855C0.00390625 30.3812 2.13729 34.0789 5.37922 36.2539C3.24101 34.0694 1.92363 31.0793 1.92363 27.7812C1.92363 21.1743 7.21384 15.8021 13.7923 15.6662Z" fill="#00F2EA"/>
</g>
<defs>
<clipPath id="clip0_1234_406">
<rect width="35.32" height="40" fill="white"/>
</clipPath>
</defs>
</svg>
