<svg width="319" height="24" viewBox="0 0 319 24" fill="none" xmlns="http://www.w3.org/2000/svg">
<path d="M7.552 4.12H0.128V0.599998H19.136V4.12H11.712V23H7.552V4.12ZM36.914 23L32.338 16.44C32.146 16.4613 31.858 16.472 31.474 16.472H26.418V23H22.258V0.599998H31.474C33.4153 0.599998 35.1007 0.919999 36.53 1.56C37.9807 2.2 39.09 3.11733 39.858 4.312C40.626 5.50667 41.01 6.92533 41.01 8.568C41.01 10.2533 40.594 11.704 39.762 12.92C38.9513 14.136 37.778 15.0427 36.242 15.64L41.394 23H36.914ZM36.818 8.568C36.818 7.13867 36.3487 6.04 35.41 5.272C34.4713 4.504 33.0953 4.12 31.282 4.12H26.418V13.048H31.282C33.0953 13.048 34.4713 12.664 35.41 11.896C36.3487 11.1067 36.818 9.99733 36.818 8.568ZM60.1923 17.816H48.9923L46.7843 23H42.4962L52.5763 0.599998H56.6723L66.7843 23H62.4323L60.1923 17.816ZM58.8162 14.552L54.5923 4.76L50.4003 14.552H58.8162ZM89.537 0.599998V23H86.113L73.761 7.832V23H69.633V0.599998H73.057L85.409 15.768V0.599998H89.537ZM102.483 23.32C100.755 23.32 99.0806 23.0747 97.4593 22.584C95.8593 22.0933 94.5899 21.4427 93.6513 20.632L95.0913 17.4C96.0086 18.1253 97.1286 18.7227 98.4513 19.192C99.7953 19.64 101.139 19.864 102.483 19.864C104.147 19.864 105.385 19.5973 106.195 19.064C107.027 18.5307 107.443 17.8267 107.443 16.952C107.443 16.312 107.209 15.7893 106.739 15.384C106.291 14.9573 105.715 14.6267 105.011 14.392C104.307 14.1573 103.347 13.8907 102.131 13.592C100.425 13.1867 99.0379 12.7813 97.9713 12.376C96.9259 11.9707 96.0193 11.3413 95.2513 10.488C94.5046 9.61333 94.1313 8.44 94.1313 6.968C94.1313 5.73067 94.4619 4.61067 95.1233 3.608C95.8059 2.584 96.8193 1.77333 98.1633 1.176C99.5286 0.578665 101.193 0.279999 103.155 0.279999C104.521 0.279999 105.865 0.450666 107.187 0.792C108.51 1.13333 109.651 1.624 110.611 2.264L109.299 5.496C108.318 4.92 107.294 4.48267 106.227 4.184C105.161 3.88533 104.126 3.736 103.123 3.736C101.481 3.736 100.254 4.01333 99.4433 4.568C98.6539 5.12267 98.2593 5.85867 98.2593 6.776C98.2593 7.416 98.4833 7.93867 98.9313 8.344C99.4006 8.74933 99.9873 9.06933 100.691 9.304C101.395 9.53867 102.355 9.80533 103.571 10.104C105.235 10.488 106.601 10.8933 107.667 11.32C108.734 11.7253 109.641 12.3547 110.387 13.208C111.155 14.0613 111.539 15.2133 111.539 16.664C111.539 17.9013 111.198 19.0213 110.515 20.024C109.854 21.0267 108.841 21.8267 107.475 22.424C106.11 23.0213 104.446 23.32 102.483 23.32ZM136.144 0.599998L126.384 23H122.288L112.496 0.599998H117.008L124.464 17.88L131.984 0.599998H136.144ZM155.308 19.512V23H138.508V0.599998H154.86V4.088H142.668V9.912H153.484V13.336H142.668V19.512H155.308ZM174.602 23L170.026 16.44C169.834 16.4613 169.546 16.472 169.162 16.472H164.106V23H159.946V0.599998H169.162C171.103 0.599998 172.788 0.919999 174.218 1.56C175.668 2.2 176.778 3.11733 177.546 4.312C178.314 5.50667 178.698 6.92533 178.698 8.568C178.698 10.2533 178.282 11.704 177.45 12.92C176.639 14.136 175.466 15.0427 173.93 15.64L179.082 23H174.602ZM174.506 8.568C174.506 7.13867 174.036 6.04 173.097 5.272C172.159 4.504 170.783 4.12 168.97 4.12H164.106V13.048H168.97C170.783 13.048 172.159 12.664 173.097 11.896C174.036 11.1067 174.506 9.99733 174.506 8.568ZM190.296 23.32C188.568 23.32 186.893 23.0747 185.272 22.584C183.672 22.0933 182.402 21.4427 181.464 20.632L182.904 17.4C183.821 18.1253 184.941 18.7227 186.264 19.192C187.608 19.64 188.952 19.864 190.296 19.864C191.96 19.864 193.197 19.5973 194.008 19.064C194.84 18.5307 195.256 17.8267 195.256 16.952C195.256 16.312 195.021 15.7893 194.552 15.384C194.104 14.9573 193.528 14.6267 192.824 14.392C192.12 14.1573 191.16 13.8907 189.944 13.592C188.237 13.1867 186.85 12.7813 185.784 12.376C184.738 11.9707 183.832 11.3413 183.064 10.488C182.317 9.61333 181.944 8.44 181.944 6.968C181.944 5.73067 182.274 4.61067 182.936 3.608C183.618 2.584 184.632 1.77333 185.976 1.176C187.341 0.578665 189.005 0.279999 190.968 0.279999C192.333 0.279999 193.677 0.450666 195 0.792C196.322 1.13333 197.464 1.624 198.424 2.264L197.112 5.496C196.13 4.92 195.106 4.48267 194.04 4.184C192.973 3.88533 191.938 3.736 190.936 3.736C189.293 3.736 188.066 4.01333 187.256 4.568C186.466 5.12267 186.072 5.85867 186.072 6.776C186.072 7.416 186.296 7.93867 186.744 8.344C187.213 8.74933 187.8 9.06933 188.504 9.304C189.208 9.53867 190.168 9.80533 191.384 10.104C193.048 10.488 194.413 10.8933 195.48 11.32C196.546 11.7253 197.453 12.3547 198.2 13.208C198.968 14.0613 199.352 15.2133 199.352 16.664C199.352 17.9013 199.01 19.0213 198.328 20.024C197.666 21.0267 196.653 21.8267 195.288 22.424C193.922 23.0213 192.258 23.32 190.296 23.32ZM220.277 19.512V23H203.477V0.599998H219.829V4.088H207.637V9.912H218.453V13.336H207.637V19.512H220.277ZM226.123 23.224C225.397 23.224 224.779 22.9787 224.267 22.488C223.755 21.976 223.499 21.336 223.499 20.568C223.499 19.7787 223.744 19.1387 224.235 18.648C224.747 18.1573 225.376 17.912 226.123 17.912C226.869 17.912 227.488 18.1573 227.979 18.648C228.491 19.1387 228.747 19.7787 228.747 20.568C228.747 21.336 228.491 21.976 227.979 22.488C227.467 22.9787 226.848 23.224 226.123 23.224ZM256.507 19.48V23H239.995V20.216L248.891 11.768C249.894 10.808 250.566 9.976 250.907 9.272C251.27 8.54667 251.451 7.832 251.451 7.128C251.451 6.08267 251.099 5.28267 250.395 4.728C249.691 4.17333 248.656 3.896 247.291 3.896C245.008 3.896 243.259 4.67467 242.043 6.232L239.131 3.992C240.006 2.81867 241.179 1.912 242.651 1.272C244.144 0.610666 245.808 0.279999 247.643 0.279999C250.075 0.279999 252.016 0.855999 253.467 2.008C254.918 3.16 255.643 4.728 255.643 6.712C255.643 7.928 255.387 9.06933 254.875 10.136C254.363 11.2027 253.382 12.4187 251.931 13.784L245.947 19.48H256.507ZM268.158 23.32C266.366 23.32 264.766 22.872 263.358 21.976C261.95 21.0587 260.841 19.736 260.03 18.008C259.22 16.2587 258.814 14.1893 258.814 11.8C258.814 9.41067 259.22 7.352 260.03 5.624C260.841 3.87467 261.95 2.552 263.358 1.656C264.766 0.738665 266.366 0.279999 268.158 0.279999C269.95 0.279999 271.55 0.738665 272.958 1.656C274.388 2.552 275.508 3.87467 276.318 5.624C277.129 7.352 277.534 9.41067 277.534 11.8C277.534 14.1893 277.129 16.2587 276.318 18.008C275.508 19.736 274.388 21.0587 272.958 21.976C271.55 22.872 269.95 23.32 268.158 23.32ZM268.158 19.704C269.758 19.704 271.017 19.0427 271.934 17.72C272.873 16.3973 273.342 14.424 273.342 11.8C273.342 9.176 272.873 7.20267 271.934 5.88C271.017 4.55733 269.758 3.896 268.158 3.896C266.58 3.896 265.321 4.55733 264.382 5.88C263.465 7.20267 263.006 9.176 263.006 11.8C263.006 14.424 263.465 16.3973 264.382 17.72C265.321 19.0427 266.58 19.704 268.158 19.704ZM296.413 19.48V23H279.901V20.216L288.797 11.768C289.8 10.808 290.472 9.976 290.813 9.272C291.176 8.54667 291.357 7.832 291.357 7.128C291.357 6.08267 291.005 5.28267 290.301 4.728C289.597 4.17333 288.563 3.896 287.197 3.896C284.915 3.896 283.165 4.67467 281.949 6.232L279.037 3.992C279.912 2.81867 281.085 1.912 282.557 1.272C284.051 0.610666 285.715 0.279999 287.549 0.279999C289.981 0.279999 291.923 0.855999 293.373 2.008C294.824 3.16 295.549 4.728 295.549 6.712C295.549 7.928 295.293 9.06933 294.781 10.136C294.269 11.2027 293.288 12.4187 291.837 13.784L285.853 19.48H296.413ZM318.314 17.912H314.346V23H310.314V17.912H298.026V15.032L309.066 0.599998H313.514L303.114 14.392H310.442V9.88H314.346V14.392H318.314V17.912Z" fill="#272727"/>
</svg>
