<svg width="40" height="40" viewBox="0 0 40 40" fill="none" xmlns="http://www.w3.org/2000/svg">
<path d="M15.5333 27.2098H11.7333V24.9331H6.66L5.20667 27.2098H0L0.315 26.7848L5.77167 19.2048L10.9233 12.0348L13.2333 12.0248H15.5333V27.2098ZM11.8983 17.0765L10.2383 19.5098L8.58 21.9498L10.2283 21.9815C10.6033 21.9815 10.9517 21.9898 11.2367 21.9898C11.4724 21.9962 11.7083 21.9901 11.9433 21.9715L11.92 21.9731C11.94 21.9531 11.9433 21.0298 11.93 19.5015L11.8983 17.0765ZM19.9583 27.2098H16.835V12.0248H20.0667C21.4131 11.9628 22.7624 12.0219 24.0983 12.2015L23.9833 12.1881C24.886 12.4001 25.7287 12.8145 26.4477 13.4001C27.1666 13.9857 27.743 14.727 28.1333 15.5681L28.1483 15.6065C28.8263 16.8583 29.1306 18.2784 29.025 19.6981L29.0267 19.6748C29.0782 20.5355 28.9703 21.3983 28.7083 22.2198L28.7217 22.1698C28.5029 23.0785 28.0965 23.9314 27.5284 24.6737C26.9604 25.416 26.2433 26.0312 25.4233 26.4798L25.3883 26.4965C24.0867 27.1315 23.4783 27.2098 19.9583 27.2098ZM20.415 15.6781V23.4348L21.8583 23.3915C23.515 23.3365 23.9217 23.1931 24.5817 22.4265C24.9147 22.0304 25.1634 21.5706 25.3124 21.0751C25.4614 20.5795 25.5077 20.0588 25.4483 19.5448L25.45 19.5615C25.537 18.9242 25.432 18.2754 25.1483 17.6981L25.1567 17.7165C24.4433 16.1815 23.84 15.8298 21.7617 15.7315L20.4117 15.6781H20.415ZM37.63 27.1998C37.47 27.1998 37.395 27.1848 37.3717 27.1498C37.3483 27.1148 37.3717 27.0798 37.3883 27.0265C38.2317 24.8265 38.7267 22.2831 38.745 19.6265V19.6181C38.7203 17.0349 38.2443 14.4758 37.3383 12.0565L37.3883 12.2098C37.365 12.1515 37.3617 12.1181 37.3783 12.0931C37.4167 12.0365 37.5683 12.0248 37.9733 12.0248C38.4967 12.0248 38.6483 12.0648 38.7317 12.2315C39.13 13.3215 39.4733 14.6231 39.7 15.9631L39.7183 16.0981C39.8967 17.1565 39.9983 18.3748 39.9983 19.6165C39.9983 21.9815 39.63 24.2581 38.9483 26.3965L38.9917 26.2381L38.6883 27.1598L37.995 27.1931C37.8233 27.1965 37.7133 27.1998 37.63 27.1998ZM30.5767 27.1998C30.485 27.1998 30.385 27.1998 30.2517 27.1898L29.525 27.1565L29.915 26.5715C30.9211 25.0239 31.5669 23.2702 31.805 21.4398L31.8117 21.3765C31.96 19.7364 31.8826 18.0838 31.5817 16.4648L31.5983 16.5748C31.2187 15.0158 30.5573 13.5393 29.6467 12.2181L29.675 12.2615L29.5017 12.0231H31.0417L31.335 12.4798C31.9211 13.5019 32.3758 14.5938 32.6883 15.7298L32.7117 15.8315C33.025 16.9581 33.2033 18.2531 33.2033 19.5898C33.2075 21.7897 32.7111 23.9618 31.7517 25.9415L31.79 25.8548C31.2167 27.0215 31.1233 27.1998 30.5733 27.1998H30.5767ZM33.95 27.1998C33.8085 27.2154 33.6653 27.2006 33.53 27.1565L33.5367 27.1581C33.5367 27.1181 33.7617 26.6431 33.8617 26.4415C34.0783 26.0081 34.2983 25.4798 34.485 24.9348L34.5133 24.8415C35.0067 23.3048 35.29 21.5365 35.29 19.7015C35.29 17.2065 34.765 14.8348 33.8183 12.6898L33.8617 12.8015C33.7421 12.5678 33.6337 12.3287 33.5367 12.0848C33.6708 12.0405 33.8128 12.0252 33.9533 12.0398H33.9483C34.0494 12.0376 34.1539 12.0409 34.2617 12.0498L34.9883 12.0815L35.4 13.1065C36.1367 15.0381 36.5633 17.2731 36.5633 19.6065C36.5633 22.0481 36.0967 24.3798 35.2483 26.5198L35.2933 26.3931L34.9933 27.1481L34.2667 27.1815C34.16 27.1815 34.055 27.1898 33.9533 27.1898L33.95 27.1998Z" fill="white"/>
</svg>
