<svg width="40" height="40" viewBox="0 0 40 40" fill="none" xmlns="http://www.w3.org/2000/svg">
<path d="M19.9987 19.9997V33.333M19.1654 11.7713C19.432 11.7025 19.7098 11.6675 19.9987 11.6663C20.5075 11.6662 21.0096 11.7826 21.4664 12.0065C21.9233 12.2304 22.3229 12.5559 22.6345 12.9581C22.9461 13.3603 23.1616 13.8285 23.2643 14.3268C23.367 14.8251 23.3542 15.3404 23.227 15.833M3.33203 3.33301L36.6654 36.6663M28.2637 9.99967C29.3637 11.4497 29.9987 13.163 29.9987 14.9997C29.9987 16.8363 29.3637 18.5497 28.2637 19.9997M11.732 19.9997C10.6337 18.5497 9.9987 16.8363 9.9987 14.9997C9.9987 13.8263 10.2587 12.703 10.732 11.6663M33.8587 6.66634C35.632 9.04967 36.6654 11.9163 36.6654 14.9997C36.6654 18.083 35.632 20.9497 33.8587 23.333M6.1387 6.66634C4.36536 9.04967 3.33203 11.9163 3.33203 14.9997C3.33203 18.083 4.36536 20.9497 6.1387 23.333" stroke="white" stroke-width="2.5" stroke-linecap="round" stroke-linejoin="round"/>
</svg>
