<svg width="40" height="40" viewBox="0 0 40 40" fill="none" xmlns="http://www.w3.org/2000/svg">
<g clip-path="url(#clip0_1190_424)">
<path d="M30.9413 16.8465C30.9464 16.9278 30.9342 17.0092 30.9056 17.0855C30.8769 17.1617 30.8325 17.2311 30.7753 17.289C30.718 17.3469 30.6491 17.392 30.5732 17.4215C30.4973 17.4509 30.416 17.464 30.3347 17.4598H18.7113C18.6295 17.4644 18.5476 17.4517 18.4711 17.4225C18.3945 17.3933 18.3249 17.3483 18.2669 17.2905C18.2089 17.2326 18.1637 17.1632 18.1343 17.0867C18.1049 17.0102 18.092 16.9283 18.0963 16.8465V15.5298C18.092 15.4479 18.1049 15.3659 18.1344 15.2893C18.1639 15.2127 18.2093 15.1431 18.2675 15.0853C18.3257 15.0274 18.3954 14.9824 18.4722 14.9533C18.549 14.9243 18.631 14.9117 18.713 14.9165H30.3197C30.4011 14.9123 30.4826 14.9255 30.5586 14.955C30.6347 14.9846 30.7036 15.0299 30.7609 15.0879C30.8182 15.146 30.8626 15.2156 30.8911 15.292C30.9196 15.3685 30.9316 15.4501 30.9263 15.5315L30.9413 16.8465ZM36.083 20.6632C36.0886 20.7453 36.0766 20.8277 36.0478 20.9049C36.019 20.982 35.9741 21.0521 35.9161 21.1105C35.858 21.1689 35.7881 21.2142 35.7111 21.2434C35.6342 21.2726 35.5518 21.285 35.4697 21.2799H21.153C21.0712 21.2849 20.9893 21.2723 20.9128 21.2429C20.8364 21.2136 20.7671 21.1681 20.7097 21.1096C20.6524 21.0511 20.6082 20.981 20.5803 20.904C20.5524 20.827 20.5414 20.7448 20.548 20.6632V19.3182C20.5426 19.2371 20.5546 19.1558 20.5831 19.0798C20.6117 19.0037 20.6562 18.9347 20.7137 18.8772C20.7711 18.8198 20.8402 18.7752 20.9162 18.7467C20.9923 18.7181 21.0736 18.7061 21.1547 18.7115H35.3447C35.4261 18.706 35.5079 18.7178 35.5844 18.7462C35.661 18.7746 35.7307 18.819 35.7888 18.8763C35.847 18.9337 35.8923 19.0027 35.9217 19.0789C35.9512 19.1551 35.9641 19.2366 35.9597 19.3182L36.083 20.6632ZM39.9997 24.5799C40.0048 24.662 39.9924 24.7444 39.9632 24.8213C39.934 24.8983 39.8887 24.9682 39.8303 25.0262C39.7719 25.0843 39.7018 25.1292 39.6247 25.158C39.5475 25.1868 39.4651 25.1988 39.383 25.1932H23.8497C23.768 25.1987 23.6861 25.1866 23.6095 25.1576C23.533 25.1286 23.4636 25.0835 23.406 25.0253C23.3484 24.9671 23.3041 24.8972 23.2759 24.8203C23.2478 24.7435 23.2366 24.6615 23.243 24.5799V23.2415C23.2361 23.1596 23.2469 23.0773 23.2748 23C23.3027 22.9227 23.347 22.8524 23.4046 22.7938C23.4623 22.7352 23.5319 22.6898 23.6087 22.6606C23.6855 22.6315 23.7677 22.6193 23.8497 22.6248H39.3847C39.4668 22.6197 39.5492 22.6321 39.6261 22.6613C39.7031 22.6905 39.773 22.7358 39.8311 22.7942C39.8891 22.8526 39.934 22.9227 39.9628 22.9998C39.9916 23.077 40.0036 23.1594 39.998 23.2415L39.9997 24.5799ZM39.9997 28.4999C40.0038 28.5815 39.9907 28.6631 39.961 28.7393C39.9314 28.8154 39.8859 28.8845 39.8277 28.9418C39.7694 28.9991 39.6996 29.0434 39.623 29.0718C39.5463 29.1002 39.4645 29.112 39.383 29.1065H23.8497C23.7687 29.1117 23.6875 29.0995 23.6116 29.0708C23.5356 29.0421 23.4667 28.9976 23.4093 28.9402C23.3519 28.8828 23.3074 28.8139 23.2787 28.7379C23.25 28.662 23.2379 28.5809 23.243 28.4999V27.1548C23.2361 27.073 23.2469 26.9906 23.2748 26.9133C23.3027 26.836 23.347 26.7657 23.4046 26.7071C23.4623 26.6486 23.5319 26.6031 23.6087 26.574C23.6855 26.5448 23.7677 26.5326 23.8497 26.5382H39.3847C39.4668 26.533 39.5492 26.5454 39.6261 26.5746C39.7031 26.6039 39.773 26.6492 39.8311 26.7075C39.8891 26.7659 39.934 26.836 39.9628 26.9132C39.9916 26.9903 40.0036 27.0727 39.998 27.1548L39.9997 28.4999ZM36.083 32.2882C36.0878 32.3701 36.0752 32.4522 36.0462 32.529C36.0171 32.6057 35.9721 32.6755 35.9143 32.7337C35.8564 32.7919 35.7868 32.8372 35.7102 32.8667C35.6336 32.8962 35.5516 32.9092 35.4697 32.9048H21.1547C21.073 32.909 20.9914 32.8959 20.9153 32.8662C20.8391 32.8366 20.7701 32.7911 20.7127 32.7329C20.6554 32.6746 20.6111 32.6048 20.5827 32.5282C20.5543 32.4515 20.5425 32.3697 20.548 32.2882V30.9432C20.5422 30.8616 20.5538 30.7797 20.5821 30.7029C20.6104 30.6261 20.6547 30.5562 20.7121 30.4979C20.7695 30.4396 20.8386 30.3941 20.9149 30.3646C20.9912 30.335 21.073 30.3221 21.1547 30.3265H35.3463C35.4283 30.3222 35.5103 30.3351 35.5869 30.3646C35.6635 30.3941 35.733 30.4395 35.7909 30.4977C35.8488 30.5559 35.8938 30.6256 35.9228 30.7024C35.9519 30.7792 35.9645 30.8612 35.9597 30.9432L36.083 32.2882ZM30.9413 36.2032C30.9466 36.2845 30.9346 36.3661 30.9061 36.4424C30.8776 36.5188 30.8332 36.5883 30.7759 36.6462C30.7185 36.7042 30.6496 36.7493 30.5735 36.7787C30.4975 36.808 30.4161 36.8209 30.3347 36.8165H18.7113C18.6295 36.8211 18.5476 36.8084 18.4711 36.7792C18.3945 36.75 18.3249 36.705 18.2669 36.6471C18.2089 36.5893 18.1637 36.5198 18.1343 36.4433C18.1049 36.3668 18.092 36.285 18.0963 36.2032V34.8565C18.0919 34.7747 18.1049 34.693 18.1344 34.6166C18.1639 34.5402 18.2094 34.471 18.2677 34.4135C18.326 34.356 18.3958 34.3115 18.4726 34.283C18.5493 34.2545 18.6313 34.2426 18.713 34.2482H30.3197C30.4008 34.243 30.4821 34.2552 30.5582 34.284C30.6342 34.3128 30.7033 34.3574 30.7607 34.415C30.8181 34.4726 30.8626 34.5418 30.8911 34.6179C30.9197 34.694 30.9317 34.7754 30.9263 34.8565L30.9413 36.2032ZM8.92466 5.14485C8.92046 5.22648 8.93363 5.30808 8.96327 5.38425C8.99292 5.46043 9.03837 5.52945 9.09664 5.58678C9.15491 5.6441 9.22467 5.68842 9.30132 5.71682C9.37797 5.74522 9.45977 5.75704 9.54132 5.75152H21.158C21.2396 5.7577 21.3216 5.74623 21.3984 5.7179C21.4752 5.68956 21.545 5.64502 21.603 5.5873C21.661 5.52958 21.706 5.46003 21.7347 5.3834C21.7635 5.30676 21.7754 5.22483 21.7697 5.14318V3.79985C21.7753 3.71777 21.7633 3.63544 21.7345 3.55837C21.7057 3.48131 21.6608 3.4113 21.6027 3.35305C21.5446 3.2948 21.4747 3.24965 21.3977 3.22064C21.3207 3.19163 21.2384 3.17942 21.1563 3.18485H9.53966C9.45781 3.18073 9.37602 3.1939 9.29961 3.2235C9.2232 3.2531 9.15388 3.29847 9.09617 3.35665C9.03846 3.41483 8.99366 3.48451 8.96468 3.56116C8.93571 3.63781 8.9232 3.71971 8.92799 3.80152L8.92466 5.14485ZM3.91799 9.04985C3.91258 9.13092 3.92457 9.2122 3.95314 9.28826C3.98172 9.36431 4.02623 9.43338 4.08367 9.49083C4.14113 9.54828 4.21019 9.59278 4.28625 9.62136C4.3623 9.64994 4.44359 9.66192 4.52466 9.65652H18.7147C18.796 9.66182 18.8776 9.64981 18.9539 9.62129C19.0303 9.59277 19.0997 9.54839 19.1577 9.49106C19.2157 9.43373 19.2608 9.36477 19.2902 9.28871C19.3195 9.21266 19.3324 9.13125 19.328 9.04985V7.70485C19.3328 7.6229 19.3202 7.54085 19.2912 7.46408C19.2621 7.38731 19.2171 7.31754 19.1593 7.25933C19.1014 7.20113 19.0318 7.15579 18.9552 7.1263C18.8786 7.09681 18.7966 7.08382 18.7147 7.08818H4.52132C4.43962 7.08372 4.35791 7.0967 4.28161 7.12625C4.20531 7.1558 4.13617 7.20124 4.07879 7.25957C4.02141 7.3179 3.97709 7.38777 3.9488 7.46454C3.9205 7.54132 3.90886 7.62323 3.91466 7.70485L3.91799 9.04985ZM0.00132291 12.9632C-0.00408356 13.0442 0.00790279 13.1255 0.0364784 13.2016C0.0650541 13.2776 0.109559 13.3467 0.167009 13.4042C0.224459 13.4616 0.293526 13.5061 0.369582 13.5347C0.445637 13.5633 0.526923 13.5753 0.60799 13.5698H16.143C16.2241 13.5753 16.3053 13.5633 16.3814 13.5347C16.4575 13.5061 16.5265 13.4616 16.584 13.4042C16.6414 13.3467 16.6859 13.2776 16.7145 13.2016C16.7431 13.1255 16.7551 13.0442 16.7497 12.9632V11.6165C16.7555 11.5349 16.7438 11.453 16.7155 11.3762C16.6872 11.2994 16.6429 11.2296 16.5855 11.1712C16.5281 11.1129 16.459 11.0675 16.3827 11.0379C16.3064 11.0084 16.2247 10.9954 16.143 10.9998H0.609656C0.528023 10.9957 0.446429 11.0088 0.370254 11.0385C0.294078 11.0681 0.225052 11.1136 0.167728 11.1718C0.110403 11.2301 0.066081 11.2999 0.0376851 11.3765C0.00928915 11.4532 -0.00253592 11.535 0.00298958 11.6165L0.00132291 12.9632ZM0.00132291 16.8465C-0.00420259 16.9281 0.00762248 17.0099 0.0360184 17.0865C0.0644143 17.1632 0.108736 17.2329 0.166061 17.2912C0.223386 17.3495 0.292412 17.3949 0.368587 17.4246C0.444762 17.4542 0.526357 17.4674 0.60799 17.4632H16.143C16.2247 17.4676 16.3064 17.4547 16.3827 17.4251C16.459 17.3956 16.5281 17.3501 16.5855 17.2918C16.6429 17.2335 16.6872 17.1636 16.7155 17.0868C16.7438 17.01 16.7555 16.9281 16.7497 16.8465V15.5298C16.755 15.4485 16.743 15.367 16.7144 15.2906C16.6859 15.2142 16.6415 15.1448 16.5842 15.0868C16.5269 15.0288 16.4579 14.9837 16.3819 14.9544C16.3058 14.925 16.2244 14.9121 16.143 14.9165H0.609656C0.528037 14.9121 0.446409 14.925 0.370156 14.9545C0.293902 14.9839 0.224755 15.0292 0.167273 15.0873C0.109791 15.1454 0.0652798 15.215 0.0366751 15.2916C0.00807035 15.3682 -0.00397852 15.45 0.00132291 15.5315V16.8465ZM3.91299 20.6649C3.90655 20.7466 3.91783 20.8288 3.94605 20.9058C3.97428 20.9828 4.01878 21.0528 4.07653 21.111C4.13428 21.1692 4.20391 21.2143 4.28068 21.2431C4.35744 21.272 4.43952 21.284 4.52132 21.2782H18.7097C18.7919 21.2841 18.8744 21.2723 18.9517 21.2436C19.0289 21.2149 19.0991 21.17 19.1576 21.1119C19.216 21.0537 19.2613 20.9838 19.2904 20.9067C19.3195 20.8295 19.3318 20.7471 19.3263 20.6649V19.3182C19.3308 19.2365 19.3178 19.1548 19.2883 19.0785C19.2587 19.0022 19.2133 18.933 19.1549 18.8756C19.0966 18.8183 19.0267 18.774 18.95 18.7457C18.8732 18.7174 18.7913 18.7057 18.7097 18.7115H4.52299C4.44179 18.7059 4.36032 18.7177 4.28406 18.7461C4.2078 18.7746 4.13852 18.8191 4.08089 18.8765C4.02325 18.934 3.97859 19.0032 3.94992 19.0793C3.92125 19.1555 3.90922 19.237 3.91466 19.3182L3.91299 20.6649ZM8.92632 24.5782C8.9209 24.6603 8.9331 24.7426 8.96211 24.8196C8.99112 24.8965 9.03627 24.9664 9.09452 25.0245C9.15278 25.0826 9.22278 25.1276 9.29985 25.1564C9.37691 25.1852 9.45925 25.1972 9.54132 25.1915H21.1547C21.2369 25.1974 21.3194 25.1856 21.3967 25.1569C21.4739 25.1282 21.5441 25.0833 21.6026 25.0252C21.661 24.9671 21.7063 24.8971 21.7354 24.82C21.7645 24.7429 21.7768 24.6604 21.7713 24.5782V23.2399C21.7773 23.1573 21.7654 23.0745 21.7365 22.997C21.7076 22.9195 21.6624 22.8491 21.6039 22.7906C21.5454 22.7321 21.475 22.6869 21.3975 22.658C21.32 22.6291 21.2372 22.6172 21.1547 22.6232H9.54299C9.46055 22.6175 9.37784 22.6296 9.30045 22.6586C9.22306 22.6875 9.15278 22.7328 9.09435 22.7912C9.03591 22.8496 8.99068 22.9199 8.9617 22.9973C8.93271 23.0747 8.92065 23.1574 8.92632 23.2399V24.5782Z" fill="white"/>
</g>
<defs>
<clipPath id="clip0_1190_424">
<rect width="40" height="40" fill="white"/>
</clipPath>
</defs>
</svg>
