<svg width="120" height="22" viewBox="0 0 120 22" fill="none" xmlns="http://www.w3.org/2000/svg">
<path d="M42.75 0C47.355 0 51.04 1.15 53.855 3.71C55.78 5.455 56.855 7.94 56.825 10.545C56.8203 11.8307 56.5546 13.1021 56.0441 14.2821C55.5336 15.4621 54.7889 16.5262 53.855 17.41C51.22 19.83 47.115 21.12 42.755 21.12C38.395 21.12 34.355 19.83 31.68 17.41C30.7135 16.5497 29.9439 15.4911 29.4236 14.3064C28.9033 13.1217 28.6445 11.8388 28.665 10.545C28.665 7.955 29.755 5.47 31.68 3.71C34.18 1.44 38.6 0 42.75 0ZM42.765 18.35C45.07 18.35 47.205 17.545 48.705 16.06C50.205 14.56 50.87 12.76 50.87 10.545C50.87 8.425 50.13 6.44 48.705 5.03C47.235 3.58 45.04 2.76 42.765 2.76C40.49 2.76 38.3 3.575 36.815 5.03C35.39 6.44 34.645 8.425 34.645 10.545C34.6146 12.5972 35.3943 14.5788 36.815 16.06C38.3 17.53 40.48 18.35 42.765 18.35ZM18.56 8.51C19.36 8.71334 20.1367 8.985 20.89 9.325C21.5883 9.64795 22.2285 10.0838 22.785 10.615C23.77 11.645 24.33 13.025 24.315 14.45C24.3257 15.2015 24.1599 15.945 23.8307 16.6206C23.5016 17.2963 23.0184 17.8852 22.42 18.34C21.3594 19.1408 20.1565 19.7329 18.875 20.085C16.9449 20.6929 14.9281 20.9801 12.905 20.935C11.145 20.935 10.175 20.73 8.84001 20.45L8.45501 20.37C6.98376 20.0453 5.54715 19.5798 4.16501 18.98C4.1032 18.9381 4.02962 18.9171 3.95501 18.92C3.84536 18.9226 3.74109 18.968 3.66447 19.0465C3.58786 19.125 3.54498 19.2303 3.54501 19.34V20.355H0.605012V12.965H3.22501C3.24233 13.714 3.48065 14.4411 3.91001 15.055C4.97001 16.355 6.11001 16.855 7.19501 17.255C9.03001 17.855 10.955 18.175 12.875 18.235C15.64 18.235 17.255 17.565 17.605 17.42L17.65 17.4L17.68 17.39C17.99 17.275 19.24 16.82 19.24 15.43C19.24 14.06 18.07 13.76 17.305 13.565L17.195 13.54C16.345 13.31 14.385 13.1 12.245 12.875L11.485 12.795C9.47834 12.5897 7.48147 12.2978 5.50001 11.92C3.01001 11.37 2.03001 10.46 1.42001 9.895L1.38001 9.855C0.490776 8.90684 -0.00284361 7.65491 1.23238e-05 6.355C1.23238e-05 3.875 1.70001 2.375 3.79001 1.455C6.06367 0.484354 8.5129 -0.00753236 10.985 0.010004C15.085 0.025004 18.42 1.36 19.62 1.98C20.105 2.24 20.345 1.92 20.345 1.68V0.935001H22.98V7.375H20.62C20.4102 6.41853 19.8941 5.5566 19.15 4.92C18.6972 4.55669 18.1978 4.25568 17.665 4.025C15.6874 3.18776 13.5574 2.77061 11.41 2.8C9.19501 2.8 7.07501 3.225 6.01001 3.875C5.34668 4.28834 5.01335 4.79834 5.01001 5.405C5.01001 6.27 5.74001 6.615 6.11001 6.72C7.09001 7.02 9.27001 7.235 10.965 7.405L11.985 7.51C13.62 7.675 17.045 8.13 18.56 8.51ZM109.395 3.525V1.13H120V3.48H117.62C116.76 3.48 116.41 3.645 115.76 4.375L108.625 12.525C108.551 12.6257 108.517 12.7506 108.53 12.875V16.585C108.541 16.7576 108.561 16.9295 108.59 17.1C108.633 17.2088 108.7 17.3061 108.787 17.3842C108.874 17.4623 108.977 17.5191 109.09 17.55C109.305 17.5808 109.522 17.5975 109.74 17.6H112.17V19.95H99.3V17.6H101.6C101.818 17.5975 102.035 17.5808 102.25 17.55C102.365 17.5184 102.471 17.4616 102.561 17.3837C102.651 17.3059 102.722 17.209 102.77 17.1C102.793 16.9342 102.808 16.7673 102.815 16.6V12.89C102.815 12.765 102.815 12.765 102.65 12.57L95.595 4.56C95.215 4.165 94.565 3.53 93.565 3.53H91.275V1.18H104.215V3.53H102.655C102.305 3.53 102.065 3.88 102.365 4.26L106.76 9.515C106.805 9.575 106.835 9.575 106.895 9.53C106.955 9.485 111.365 4.305 111.395 4.26C111.432 4.21243 111.459 4.1579 111.475 4.09966C111.49 4.04142 111.494 3.98064 111.486 3.92095C111.477 3.86125 111.457 3.80385 111.426 3.75216C111.395 3.70046 111.354 3.65552 111.305 3.62C111.217 3.55865 111.112 3.5271 111.005 3.53L109.395 3.525ZM77.975 3.51H80.4C81.505 3.51 81.7 3.935 81.715 4.965L81.855 12.795L68.945 1.175H59.72V3.525H61.78C63.265 3.525 63.37 4.345 63.37 5.075V16.14C63.37 16.78 63.375 17.615 62.46 17.615H59.93V19.95H70.75V17.6H68.11C67.05 17.6 67.01 17.115 66.99 16.085V6.675L81.855 19.93H85.64L85.44 4.95C85.46 3.86 85.535 3.495 86.655 3.495H89.02V1.145H77.975V3.51Z" fill="#1E1E1E"/>
</svg>
