<svg width="65" height="51" viewBox="0 0 65 51" fill="none" xmlns="http://www.w3.org/2000/svg">
<path d="M24.3288 0C28.8059 0.843514 35.3593 2.82253 38.9281 3.99047C47.8498 7.07254 50.8995 10.9008 50.8995 19.5306C50.8995 27.9657 45.7086 31.1451 39.0903 27.9657V12.2634C39.0903 10.479 38.7658 8.75957 37.0139 8.27293C35.6838 7.85117 34.9051 9.084 34.9051 10.9008V50.1566L24.3288 46.7826V0ZM36.8842 43.3112L53.9167 37.2444C55.8632 36.5631 56.1552 35.5898 54.5979 35.0707C53.0083 34.5516 50.1857 34.7138 48.2392 35.3951L36.8842 39.3856V33.0268L37.5655 32.7997C37.5655 32.7997 40.8422 31.5669 45.4166 31.1451C50.056 30.626 55.701 31.21 60.1132 32.8646C65.1094 34.4543 65.6934 36.7902 64.4281 38.3799C63.1304 40.002 60.0159 41.1375 60.0159 41.1375L36.8842 49.4104V43.3112ZM4.86307 42.6623C-0.230455 41.2997 -1.10641 38.2177 1.22947 36.4333C3.40314 34.8112 7.06918 33.6757 7.06918 33.6757L22.2524 28.3226V34.4219L11.3516 38.3474C9.40507 39.0287 9.11308 40.002 10.6703 40.5211C12.2276 41.0402 15.0826 40.9104 16.9967 40.1967L22.2524 38.315V43.7978L21.2143 43.9925C15.9585 44.836 10.3784 44.544 4.86307 42.6623Z" fill="#1E1E1E"/>
</svg>
