<svg width="47" height="59" viewBox="0 0 47 59" fill="none" xmlns="http://www.w3.org/2000/svg">
<path d="M9.50215 37.8626L6.12955 41.2327C8.42905 43.5322 9.19555 44.6053 9.34885 45.6784C9.50215 45.5251 12.5681 42.919 12.5681 41.9992C12.5681 40.6196 11.6483 40.1597 9.50215 37.8626ZM1.83716 31.8815H0C0 31.8815 1.8396 32.9546 1.8396 35.4098V43.6831C1.8396 49.0486 6.28285 54.1075 11.6483 54.1075H16.094C18.8534 54.1075 19.7732 53.4943 21.3062 51.9613L22.9901 50.275C23.9099 49.2043 24.9854 48.4378 24.9854 45.5251V42.7657C24.9854 40.4663 23.6033 39.3932 22.9901 38.78L21.4571 37.247V42.7657C21.4571 42.7657 22.5302 43.9921 23.1434 44.2987C25.4429 46.1383 23.6057 49.3552 21.4595 49.3552H11.495C6.89605 49.2019 3.21686 45.3718 3.06356 40.7729V36.3272C3.06356 31.8815 1.8396 31.8815 1.8396 31.8815M16.2449 37.8602L12.8747 41.2327C15.1742 43.5322 15.9407 44.6053 16.094 45.6784C16.2473 45.5251 19.3133 42.919 19.3133 41.9992C19.3133 40.6196 18.3935 40.0039 16.2473 37.8626M23.1434 0L20.8463 2.2995C19.9265 3.21929 20.2331 5.05889 22.0727 6.89849V11.4975C22.0727 11.9549 21.6104 12.4148 21.6104 12.4148C21.6104 12.4148 18.8534 9.96205 16.4031 9.96205H12.7214C10.4219 9.96205 8.58478 12.1082 8.27575 12.2615C7.04935 13.4879 7.04935 15.7899 7.96915 16.8605L10.5752 19.4666C10.5752 19.4666 9.96205 15.33 10.5752 12.5681C10.7285 11.9549 11.495 11.1884 12.2615 11.1884L18.2402 15.7874L11.3417 22.9901C11.0351 23.2991 10.1153 23.9123 9.19555 23.9123C8.12488 23.9123 7.66255 23.2991 7.20265 22.6859V26.0585C7.20265 27.1292 8.73565 28.358 10.1153 28.358H19.3133C19.9265 28.358 20.693 28.2047 21.3062 27.5915L24.3722 24.5255C24.8297 24.0632 24.983 23.4524 24.983 22.6859V19.16C24.983 15.7874 22.3793 13.1813 22.3793 13.1813C22.3793 13.1813 22.9901 12.7214 22.9901 11.3417V7.81828C22.9901 7.81828 24.0632 8.88895 24.2165 9.35128L26.2118 7.35595C27.1292 6.43859 25.5962 4.75229 24.983 3.98579C23.1434 1.99046 23.1434 0 23.1434 0ZM11.6508 24.2189C12.5706 23.7566 12.7239 23.4524 13.4904 22.5326L19.3158 16.4006C19.3158 16.4006 22.5326 19.7732 23.6057 21.6128C24.068 22.5326 24.6788 24.2165 21.9219 24.2165L11.6508 24.2189ZM3.82763 17.1696H2.14376C3.21443 17.7828 3.98092 19.6224 3.98092 20.6955V27.4406C3.98092 29.2778 5.36062 35.8697 11.3393 35.8697H28.6597V46.9073C28.6597 48.7444 28.0465 49.8175 27.5891 50.2774L24.9805 52.7302H26.2069L30.9592 48.4403C31.879 47.3672 32.9521 46.2941 32.9521 42.9215V35.8673L34.945 33.8744L38.3176 30.6551C38.3176 33.4145 39.6973 34.6409 40.9213 34.6409C41.6027 34.5973 42.2501 34.3276 42.7609 33.8744L45.8269 30.9617C47.2066 29.582 47.9731 25.292 44.6005 25.292C42.4543 25.292 40.0015 28.358 39.8506 28.6646C39.0841 28.2023 38.4709 27.1316 38.4709 27.1316V29.7353C38.1643 30.1976 36.7846 31.2683 35.7115 31.2683H32.9521V28.6646C32.9521 27.4382 33.412 26.0585 34.0228 25.4453L36.6313 22.9925H35.4049L30.1927 27.7448C29.2729 28.8155 28.6597 30.8108 28.6597 31.2683H9.04225C6.58945 31.2683 5.05646 28.8179 5.05646 26.825V21.7637C5.05646 17.627 3.98579 17.1671 3.83006 17.1671M43.5298 31.8815C43.0699 31.8815 42.61 31.7282 41.9968 31.2683C41.386 30.8084 40.313 29.2754 40.313 29.2754C40.6195 28.9712 41.5393 28.6646 42.3034 28.6646C42.9166 28.6646 43.5298 28.8179 43.6831 29.1245C44.7562 30.5018 44.6029 31.8815 43.5298 31.8815ZM35.4074 0L30.1927 4.75229C29.8861 5.05889 28.6597 6.89849 28.6597 9.04468V22.6859C28.6597 23.6057 28.0465 24.9854 27.5891 25.4453L24.9805 27.8981H26.2069L31.1125 23.4524C31.7257 22.8392 32.9521 21.3062 32.9521 18.7001V5.67209C32.9521 3.67676 33.8719 2.60609 34.3318 2.14376L36.6338 0H35.4074ZM36.1739 34.9475V40.313L38.0135 42.3058C39.5465 43.8388 39.3932 46.7515 34.7942 51.1948C33.1587 52.9477 30.9035 53.9928 28.5089 54.1075H20.2331L25.1363 58.3999H28.5089C31.8815 58.3999 34.9475 57.0202 36.9404 54.874C38.78 52.8811 39.853 50.275 39.6997 47.518V40.4662C39.6997 38.0135 38.1667 36.6338 37.8601 36.3296C37.5536 36.3296 36.1739 34.9475 36.1739 34.9475Z" fill="#1E1E1E"/>
</svg>
