<svg width="43" height="55" viewBox="0 0 43 55" fill="none" xmlns="http://www.w3.org/2000/svg">
<path d="M31.8445 23.1329C30.6607 23.1329 29.5854 23.5847 26.2758 25.9613V38.7479C32.0139 32.2981 33.6495 27.8861 33.6495 25.6224C33.6428 24.0365 32.9153 23.1329 31.8445 23.1329ZM32.2941 14.6477C32.2941 12.3773 29.7051 10.5135 26.2735 10.2898V22.114C30.602 19.568 32.2918 17.0152 32.2918 14.6454L32.2941 14.6477ZM42.4827 9.62792C42.4262 9.40201 42.3697 9.31843 42.2567 9.28906L38.1971 8.21372L37.6346 5.89361C37.6075 5.78066 37.5781 5.69481 37.4674 5.6677L33.3016 4.53815L32.7956 2.32873C32.7913 2.26422 32.7674 2.20256 32.727 2.15207C32.6866 2.10157 32.6317 2.06468 32.5697 2.04634L21.7576 0.0266988C21.5809 -0.0088996 21.3989 -0.0088996 21.2222 0.0266988L10.4055 2.04634C10.3435 2.06468 10.2886 2.10157 10.2482 2.15207C10.2078 2.20256 10.1839 2.26422 10.1796 2.32873L9.67358 4.53815L5.51004 5.6677C5.39708 5.69481 5.36997 5.78066 5.3406 5.89361L4.77808 8.21146L0.732016 9.28906C0.61906 9.31843 0.562582 9.40201 0.506104 9.62792C0.165669 11.4379 -0.00375803 13.2759 6.32155e-05 15.1176C6.32155e-05 31.4171 8.44236 45.5636 21.0482 53.9969C21.1008 54.067 21.169 54.124 21.2475 54.1632C21.3259 54.2024 21.4124 54.2228 21.5 54.2228C21.5877 54.2228 21.6742 54.2024 21.7526 54.1632C21.831 54.124 21.8992 54.067 21.9519 53.9969C34.5577 45.5636 43 31.4171 43 15.1176C43.0008 13.2756 42.8284 11.4376 42.4849 9.62792H42.4827ZM19.9074 46.4989C19.9074 46.6118 19.7944 46.6683 19.6837 46.5554C16.5887 42.9927 14.5058 38.6349 13.1007 33.8818L10.9613 35.244C10.3965 35.6416 9.94919 35.4699 9.60581 34.8486C6.73673 29.7566 4.87975 21.3821 4.71257 15.4994C4.70821 15.3645 4.73073 15.2301 4.77882 15.1041C4.82692 14.978 4.89962 14.8628 4.9927 14.7651C5.75958 13.8439 6.58673 12.9745 7.46869 12.1626C7.63812 11.9932 7.80755 12.1039 7.80755 12.3886C7.80755 19.629 9.04329 26.3612 11.0155 30.7777C11.1827 31.1166 11.3521 31.1166 11.578 30.9449L12.1947 30.5496C11.0132 25.2858 10.3378 18.2713 10.5072 10.1814C10.5072 9.89902 10.5637 9.7838 10.7331 9.67311C11.5963 9.13406 12.4987 8.66057 13.4327 8.25664C13.7129 8.14369 13.7716 8.20242 13.7716 8.42608C13.6135 20.196 14.5713 28.3379 16.6497 34.8441C16.7062 35.0136 16.8756 34.9571 16.8756 34.7877C16.7627 32.4111 16.7627 30.3191 16.7627 27.7709L16.6497 7.46144C16.6497 7.23552 16.7062 7.12257 16.9321 7.06609C17.8579 6.8367 18.7973 6.66617 19.7447 6.55553C19.7673 6.55336 19.7901 6.55606 19.8115 6.56347C19.8329 6.57088 19.8525 6.58281 19.869 6.59845C19.8853 6.61493 19.8978 6.63481 19.9056 6.65667C19.9135 6.67854 19.9164 6.70185 19.9141 6.72497L19.9074 46.4989ZM23.2847 46.5554C23.1718 46.6683 23.0588 46.6118 23.0588 46.4989V6.72722C23.0566 6.70411 23.0595 6.6808 23.0673 6.65893C23.0751 6.63707 23.0876 6.61719 23.104 6.60071C23.1202 6.58466 23.1397 6.57231 23.1612 6.56452C23.1826 6.55672 23.2055 6.55365 23.2283 6.55553C30.7669 7.06609 35.6082 10.2356 35.6082 14.8171C35.6106 16.7171 34.9088 18.5506 33.6382 19.9634C36.112 20.6411 37.0698 22.5094 37.0698 24.9989C37.0743 29.4132 33.8664 36.7124 23.2892 46.5554H23.2847Z" fill="#1E1E1E"/>
</svg>
