<svg width="90" height="100" viewBox="0 0 90 100" fill="none" xmlns="http://www.w3.org/2000/svg">
<path fill-rule="evenodd" clip-rule="evenodd" d="M45 0C43.6739 0 42.4021 0.526784 41.4645 1.46447C40.5268 2.40215 40 3.67392 40 5V15H10C7.34784 15 4.8043 16.0536 2.92893 17.9289C1.05357 19.8043 0 22.3478 0 25V90C0 92.6522 1.05357 95.1957 2.92893 97.0711C4.8043 98.9464 7.34784 100 10 100H80C82.6522 100 85.1957 98.9464 87.0711 97.0711C88.9464 95.1957 90 92.6522 90 90V25C90 22.3478 88.9464 19.8043 87.0711 17.9289C85.1957 16.0536 82.6522 15 80 15H50V5C50 3.67392 49.4732 2.40215 48.5355 1.46447C47.5979 0.526784 46.3261 0 45 0ZM50 15V59.14L59.14 50C60.0775 49.0618 61.3494 48.5345 62.6757 48.534C64.0021 48.5335 65.2743 49.06 66.2125 49.9975C67.1507 50.935 67.678 52.2069 67.6785 53.5332C67.679 54.8596 67.1525 56.1318 66.215 57.07L49.415 73.865C48.2431 75.0359 46.6542 75.6937 44.9975 75.6937C43.3408 75.6937 41.7519 75.0359 40.58 73.865L23.785 57.07C23.3208 56.6054 22.9526 56.054 22.7015 55.4472C22.4504 54.8403 22.3213 54.19 22.3215 53.5332C22.3217 52.8765 22.4513 52.2262 22.7028 51.6196C22.9544 51.0129 23.323 50.4617 23.7875 49.9975C24.2521 49.5333 24.8035 49.1651 25.4103 48.914C26.0172 48.6629 26.6675 48.5338 27.3243 48.534C27.981 48.5342 28.6313 48.6638 29.2379 48.9153C29.8446 49.1669 30.3958 49.5354 30.86 50L40 59.14V15H50Z" fill="#1E1E1E"/>
</svg>
