<svg width="80" height="92" viewBox="0 0 80 92" fill="none" xmlns="http://www.w3.org/2000/svg">
<path d="M33.3333 8.33333C25.5979 8.33333 18.1792 11.4062 12.7094 16.876C7.23958 22.3459 4.16667 29.7645 4.16667 37.5C4.16667 38.6051 4.60566 39.6649 5.38706 40.4463C6.16846 41.2277 7.22827 41.6667 8.33333 41.6667C9.4384 41.6667 10.4982 41.2277 11.2796 40.4463C12.061 39.6649 12.5 38.6051 12.5 37.5C12.5 31.9747 14.6949 26.6756 18.6019 22.7686C22.509 18.8616 27.808 16.6667 33.3333 16.6667C38.8587 16.6667 44.1577 18.8616 48.0647 22.7686C51.9717 26.6756 54.1667 31.9747 54.1667 37.5C54.1536 41.2694 53.1322 44.9667 51.2083 48.2083L36.375 79.1667C35.6443 80.4322 34.5937 81.4834 33.3285 82.2147C32.0633 82.9461 30.628 83.3318 29.1667 83.3333C26.9565 83.3333 24.8369 82.4553 23.2741 80.8925C21.7113 79.3297 20.8333 77.2101 20.8333 75C20.8333 73.8949 20.3943 72.8351 19.6129 72.0537C18.8315 71.2723 17.7717 70.8333 16.6667 70.8333C15.5616 70.8333 14.5018 71.2723 13.7204 72.0537C12.939 72.8351 12.5 73.8949 12.5 75C12.5 79.4203 14.2559 83.6595 17.3816 86.7851C20.5072 89.9107 24.7464 91.6667 29.1667 91.6667C32.1465 91.664 35.0712 90.8624 37.6361 89.3455C40.2009 87.8286 42.3122 85.6517 43.75 83.0417L58.5833 52.0833C61.1593 47.6557 62.5111 42.6225 62.5 37.5C62.5 29.7645 59.4271 22.3459 53.9573 16.876C48.4875 11.4062 41.0688 8.33333 33.3333 8.33333ZM4.16667 58.3333C3.34258 58.3333 2.537 58.5777 1.85179 59.0355C1.16659 59.4934 0.632536 60.1441 0.31717 60.9055C0.00180534 61.6668 -0.0807085 62.5046 0.0800632 63.3129C0.240835 64.1211 0.637672 64.8636 1.22039 65.4463C1.80311 66.029 2.54554 66.4258 3.35379 66.5866C4.16205 66.7474 4.99982 66.6649 5.76118 66.3495C6.52254 66.0341 7.17329 65.5001 7.63113 64.8149C8.08896 64.1297 8.33333 63.3241 8.33333 62.5C8.33333 61.3949 7.89435 60.3351 7.11295 59.5537C6.33154 58.7723 5.27174 58.3333 4.16667 58.3333ZM60.7917 0.833333C60.3539 0.505029 59.8558 0.266158 59.3258 0.13036C58.7957 -0.00543849 58.2441 -0.0355049 57.7024 0.0418772C57.1607 0.119259 56.6396 0.302574 56.1688 0.581356C55.698 0.860138 55.2866 1.22893 54.9583 1.66667C54.63 2.10441 54.3912 2.60252 54.2554 3.13258C54.1196 3.66263 54.0895 4.21425 54.1669 4.75592C54.2443 5.2976 54.4276 5.81873 54.7064 6.28956C54.9851 6.76039 55.3539 7.17169 55.7917 7.5C60.4567 10.9887 64.2448 15.5161 66.8557 20.7235C69.4666 25.9308 70.8285 31.6748 70.8333 37.5C70.8333 38.6051 71.2723 39.6649 72.0537 40.4463C72.8351 41.2277 73.8949 41.6667 75 41.6667C76.1051 41.6667 77.1649 41.2277 77.9463 40.4463C78.7277 39.6649 79.1667 38.6051 79.1667 37.5C79.1425 30.3845 77.471 23.3713 74.283 17.0098C71.0951 10.6484 66.4774 5.11162 60.7917 0.833333ZM33.3333 33.3333C34.4384 33.3333 35.4982 33.7723 36.2796 34.5537C37.061 35.3351 37.5 36.3949 37.5 37.5C37.5 38.6051 37.939 39.6649 38.7204 40.4463C39.5018 41.2277 40.5616 41.6667 41.6667 41.6667C42.7717 41.6667 43.8315 41.2277 44.6129 40.4463C45.3943 39.6649 45.8333 38.6051 45.8333 37.5C45.8333 34.1848 44.5164 31.0054 42.1722 28.6612C39.828 26.317 36.6485 25 33.3333 25C30.0181 25 26.8387 26.317 24.4945 28.6612C22.1503 31.0054 20.8333 34.1848 20.8333 37.5C20.8278 39.993 21.5678 42.4308 22.9583 44.5C23.5325 45.315 24.1887 46.0689 24.9167 46.75L25.75 47.6667C26.2068 48.3514 26.4506 49.156 26.4506 49.9792C26.4506 50.8023 26.2068 51.6069 25.75 52.2917C25.1216 53.1983 24.8784 54.3171 25.0736 55.4028C25.2689 56.4885 25.8867 57.4525 26.7917 58.0833C27.4884 58.5696 28.3171 58.8313 29.1667 58.8333C29.8384 58.8322 30.4999 58.6687 31.0949 58.3567C31.6898 58.0448 32.2004 57.5936 32.5833 57.0417C34.0076 54.9618 34.7697 52.4999 34.7697 49.9792C34.7697 47.4584 34.0076 44.9965 32.5833 42.9167C32.145 42.2951 31.6573 41.7099 31.125 41.1667L30.5417 40.5833C30.2983 40.3529 30.0753 40.102 29.875 39.8333C29.4115 39.1436 29.1648 38.331 29.1667 37.5C29.1667 36.3949 29.6057 35.3351 30.3871 34.5537C31.1685 33.7723 32.2283 33.3333 33.3333 33.3333ZM16.6667 58.3333C17.4908 58.3333 18.2963 58.089 18.9815 57.6311C19.6667 57.1733 20.2008 56.5225 20.5162 55.7612C20.8315 54.9998 20.914 54.162 20.7533 53.3538C20.5925 52.5455 20.1957 51.8031 19.6129 51.2204C19.0302 50.6377 18.2878 50.2408 17.4795 50.0801C16.6713 49.9193 15.8335 50.0018 15.0722 50.3172C14.3108 50.6325 13.6601 51.1666 13.2022 51.8518C12.7444 52.537 12.5 53.3426 12.5 54.1667C12.5 55.2717 12.939 56.3315 13.7204 57.1129C14.5018 57.8943 15.5616 58.3333 16.6667 58.3333Z" fill="#1E1E1E"/>
</svg>
